<?xml version="1.0" encoding="UTF-8" standalone="no"?><!DOCTYPE svg PUBLIC "-//W3C//DTD SVG 1.1//EN" "http://www.w3.org/Graphics/SVG/1.1/DTD/svg11.dtd"><svg width="100%" height="100%" viewBox="0 0 32 32" version="1.1" xmlns="http://www.w3.org/2000/svg" xmlns:xlink="http://www.w3.org/1999/xlink" xml:space="preserve" style="fill-rule:evenodd;clip-rule:evenodd;stroke-linejoin:round;stroke-miterlimit:1.41421;"><path d="M17.813,27.602c0,0.997 -0.816,1.813 -1.813,1.813c-0.997,0 -1.813,-0.816 -1.813,-1.813c0,-0.997 0.816,-1.813 1.813,-1.813c0.997,0 1.813,0.816 1.813,1.813Zm4.713,-3.626c0,0.385 -0.34,0.725 -0.725,0.725l-11.602,0c-0.385,0 -0.725,-0.34 -0.725,-0.725l0,-15.952c0,-0.385 0.34,-0.725 0.725,-0.725l11.602,0c0.385,0 0.725,0.34 0.725,0.725l0,15.952Zm-4.351,-19.215c0,0.204 -0.158,0.362 -0.362,0.362l-3.626,0c-0.204,0 -0.362,-0.158 -0.362,-0.362c0,-0.204 0.158,-0.363 0.362,-0.363l3.626,0c0.204,0 0.362,0.159 0.362,0.363Zm6.526,-0.363c0,-1.586 -1.314,-2.9 -2.9,-2.9l-11.602,0c-1.586,0 -2.9,1.314 -2.9,2.9l0,23.204c0,1.586 1.314,2.9 2.9,2.9l11.602,0c1.586,0 2.9,-1.314 2.9,-2.9l0,-23.204Z" style="fill:#fff;fill-rule:nonzero;"/></svg>